<mxfile host="Electron" modified="2024-05-10T19:04:56.919Z" agent="Mozilla/5.0 (Windows NT 10.0; Win64; x64) AppleWebKit/537.36 (KHTML, like Gecko) draw.io/23.1.5 Chrome/120.0.6099.109 Electron/28.1.0 Safari/537.36" etag="CM7EN_y4SMHxfPwgusnw" version="23.1.5" type="device">
  <diagram name="Strona-1" id="N-g6R4FaqpWk_qaJ9Zau">
    <mxGraphModel dx="574" dy="383" grid="1" gridSize="10" guides="1" tooltips="1" connect="1" arrows="1" fold="1" page="1" pageScale="1" pageWidth="583" pageHeight="413" math="0" shadow="0">
      <root>
        <mxCell id="0" />
        <mxCell id="1" parent="0" />
        <mxCell id="QXbhTZh7FSRHMu3yAL8Z-154" value="cat 111111" style="rounded=0;whiteSpace=wrap;html=1;" parent="1" vertex="1">
          <mxGeometry x="130" y="120" width="80" height="20" as="geometry" />
        </mxCell>
        <mxCell id="QXbhTZh7FSRHMu3yAL8Z-155" value="cat 222222" style="rounded=0;whiteSpace=wrap;html=1;" parent="1" vertex="1">
          <mxGeometry x="130" y="100" width="80" height="20" as="geometry" />
        </mxCell>
        <mxCell id="QXbhTZh7FSRHMu3yAL8Z-171" value="" style="edgeStyle=orthogonalEdgeStyle;rounded=0;orthogonalLoop=1;jettySize=auto;html=1;" parent="1" source="QXbhTZh7FSRHMu3yAL8Z-156" target="QXbhTZh7FSRHMu3yAL8Z-158" edge="1">
          <mxGeometry relative="1" as="geometry" />
        </mxCell>
        <mxCell id="QXbhTZh7FSRHMu3yAL8Z-156" value="left 333333" style="rounded=0;whiteSpace=wrap;html=1;" parent="1" vertex="1">
          <mxGeometry x="130" y="140" width="80" height="20" as="geometry" />
        </mxCell>
        <mxCell id="QXbhTZh7FSRHMu3yAL8Z-157" value="right 444444" style="rounded=0;whiteSpace=wrap;html=1;" parent="1" vertex="1">
          <mxGeometry x="130" y="160" width="80" height="20" as="geometry" />
        </mxCell>
        <mxCell id="QXbhTZh7FSRHMu3yAL8Z-158" value="cat 555555" style="rounded=0;whiteSpace=wrap;html=1;" parent="1" vertex="1">
          <mxGeometry x="130" y="180" width="80" height="20" as="geometry" />
        </mxCell>
        <mxCell id="QXbhTZh7FSRHMu3yAL8Z-159" value="up 666666" style="rounded=0;whiteSpace=wrap;html=1;" parent="1" vertex="1">
          <mxGeometry x="130" y="200" width="80" height="20" as="geometry" />
        </mxCell>
        <mxCell id="QXbhTZh7FSRHMu3yAL8Z-160" value="up 777777" style="rounded=0;whiteSpace=wrap;html=1;" parent="1" vertex="1">
          <mxGeometry x="130" y="220" width="80" height="20" as="geometry" />
        </mxCell>
        <mxCell id="QXbhTZh7FSRHMu3yAL8Z-161" value="down 888888" style="rounded=0;whiteSpace=wrap;html=1;" parent="1" vertex="1">
          <mxGeometry x="130" y="240" width="80" height="20" as="geometry" />
        </mxCell>
        <mxCell id="QXbhTZh7FSRHMu3yAL8Z-162" value="sortowanie" style="shape=flexArrow;endArrow=classic;html=1;rounded=0;exitX=1;exitY=0;exitDx=0;exitDy=0;entryX=0;entryY=0;entryDx=0;entryDy=0;" parent="1" source="QXbhTZh7FSRHMu3yAL8Z-158" target="QXbhTZh7FSRHMu3yAL8Z-167" edge="1">
          <mxGeometry x="1" y="-103" width="50" height="50" relative="1" as="geometry">
            <mxPoint x="140" y="180" as="sourcePoint" />
            <mxPoint x="190" y="180" as="targetPoint" />
            <mxPoint x="50" y="-13" as="offset" />
          </mxGeometry>
        </mxCell>
        <mxCell id="QXbhTZh7FSRHMu3yAL8Z-163" value="cat 111111" style="rounded=0;whiteSpace=wrap;html=1;" parent="1" vertex="1">
          <mxGeometry x="240" y="100" width="100" height="20" as="geometry" />
        </mxCell>
        <mxCell id="QXbhTZh7FSRHMu3yAL8Z-164" value="cat 222222" style="rounded=0;whiteSpace=wrap;html=1;" parent="1" vertex="1">
          <mxGeometry x="240" y="120" width="100" height="20" as="geometry" />
        </mxCell>
        <mxCell id="QXbhTZh7FSRHMu3yAL8Z-165" value="left 333333" style="rounded=0;whiteSpace=wrap;html=1;" parent="1" vertex="1">
          <mxGeometry x="240" y="140" width="100" height="20" as="geometry" />
        </mxCell>
        <mxCell id="QXbhTZh7FSRHMu3yAL8Z-166" value="right 444444" style="rounded=0;whiteSpace=wrap;html=1;" parent="1" vertex="1">
          <mxGeometry x="240" y="160" width="100" height="20" as="geometry" />
        </mxCell>
        <mxCell id="QXbhTZh7FSRHMu3yAL8Z-167" value="cat 555555" style="rounded=0;whiteSpace=wrap;html=1;" parent="1" vertex="1">
          <mxGeometry x="240" y="180" width="100" height="20" as="geometry" />
        </mxCell>
        <mxCell id="QXbhTZh7FSRHMu3yAL8Z-168" value="up 666666" style="rounded=0;whiteSpace=wrap;html=1;" parent="1" vertex="1">
          <mxGeometry x="240" y="200" width="100" height="20" as="geometry" />
        </mxCell>
        <mxCell id="QXbhTZh7FSRHMu3yAL8Z-169" value="up 777777" style="rounded=0;whiteSpace=wrap;html=1;" parent="1" vertex="1">
          <mxGeometry x="240" y="220" width="100" height="20" as="geometry" />
        </mxCell>
        <mxCell id="QXbhTZh7FSRHMu3yAL8Z-170" value="down 888888" style="rounded=0;whiteSpace=wrap;html=1;" parent="1" vertex="1">
          <mxGeometry x="240" y="240" width="100" height="20" as="geometry" />
        </mxCell>
        <mxCell id="QXbhTZh7FSRHMu3yAL8Z-172" value="punktowanie" style="shape=flexArrow;endArrow=classic;html=1;rounded=0;exitX=1;exitY=0;exitDx=0;exitDy=0;entryX=0;entryY=0;entryDx=0;entryDy=0;" parent="1" source="QXbhTZh7FSRHMu3yAL8Z-167" edge="1">
          <mxGeometry x="1" y="-103" width="50" height="50" relative="1" as="geometry">
            <mxPoint x="292" y="179.43" as="sourcePoint" />
            <mxPoint x="372" y="179.43" as="targetPoint" />
            <mxPoint x="46" y="-12" as="offset" />
          </mxGeometry>
        </mxCell>
        <mxCell id="QXbhTZh7FSRHMu3yAL8Z-173" value="cat 8" style="rounded=0;whiteSpace=wrap;html=1;" parent="1" vertex="1">
          <mxGeometry x="370" y="100" width="100" height="20" as="geometry" />
        </mxCell>
        <mxCell id="QXbhTZh7FSRHMu3yAL8Z-174" value="cat 7" style="rounded=0;whiteSpace=wrap;html=1;" parent="1" vertex="1">
          <mxGeometry x="370" y="120" width="100" height="20" as="geometry" />
        </mxCell>
        <mxCell id="QXbhTZh7FSRHMu3yAL8Z-175" value="left 6" style="rounded=0;whiteSpace=wrap;html=1;" parent="1" vertex="1">
          <mxGeometry x="370" y="140" width="100" height="20" as="geometry" />
        </mxCell>
        <mxCell id="QXbhTZh7FSRHMu3yAL8Z-176" value="right 5" style="rounded=0;whiteSpace=wrap;html=1;" parent="1" vertex="1">
          <mxGeometry x="370" y="160" width="100" height="20" as="geometry" />
        </mxCell>
        <mxCell id="QXbhTZh7FSRHMu3yAL8Z-177" value="cat 4" style="rounded=0;whiteSpace=wrap;html=1;" parent="1" vertex="1">
          <mxGeometry x="370" y="180" width="100" height="20" as="geometry" />
        </mxCell>
        <mxCell id="QXbhTZh7FSRHMu3yAL8Z-178" value="up 3" style="rounded=0;whiteSpace=wrap;html=1;" parent="1" vertex="1">
          <mxGeometry x="370" y="200" width="100" height="20" as="geometry" />
        </mxCell>
        <mxCell id="QXbhTZh7FSRHMu3yAL8Z-179" value="up 2" style="rounded=0;whiteSpace=wrap;html=1;" parent="1" vertex="1">
          <mxGeometry x="370" y="220" width="100" height="20" as="geometry" />
        </mxCell>
        <mxCell id="QXbhTZh7FSRHMu3yAL8Z-180" value="down 1" style="rounded=0;whiteSpace=wrap;html=1;" parent="1" vertex="1">
          <mxGeometry x="370" y="240" width="100" height="20" as="geometry" />
        </mxCell>
        <mxCell id="QXbhTZh7FSRHMu3yAL8Z-181" value="Zebranie puntkÃ³w" style="shape=flexArrow;endArrow=classic;html=1;rounded=0;exitX=1;exitY=0;exitDx=0;exitDy=0;entryX=0.5;entryY=0;entryDx=0;entryDy=0;" parent="1" target="QXbhTZh7FSRHMu3yAL8Z-182" edge="1">
          <mxGeometry x="1" y="110" width="50" height="50" relative="1" as="geometry">
            <mxPoint x="470" y="150" as="sourcePoint" />
            <mxPoint x="500" y="300" as="targetPoint" />
            <mxPoint x="-110" y="110" as="offset" />
            <Array as="points">
              <mxPoint x="500" y="150" />
            </Array>
          </mxGeometry>
        </mxCell>
        <mxCell id="QXbhTZh7FSRHMu3yAL8Z-182" value="cat 23" style="rounded=0;whiteSpace=wrap;html=1;fillColor=#1ba1e2;fontColor=#ffffff;strokeColor=#006EAF;" parent="1" vertex="1">
          <mxGeometry x="450" y="290" width="100" height="20" as="geometry" />
        </mxCell>
        <mxCell id="QXbhTZh7FSRHMu3yAL8Z-184" value="left 6" style="rounded=0;whiteSpace=wrap;html=1;" parent="1" vertex="1">
          <mxGeometry x="450" y="310" width="100" height="20" as="geometry" />
        </mxCell>
        <mxCell id="QXbhTZh7FSRHMu3yAL8Z-185" value="right 5" style="rounded=0;whiteSpace=wrap;html=1;" parent="1" vertex="1">
          <mxGeometry x="450" y="330" width="100" height="20" as="geometry" />
        </mxCell>
        <mxCell id="QXbhTZh7FSRHMu3yAL8Z-187" value="up 5" style="rounded=0;whiteSpace=wrap;html=1;" parent="1" vertex="1">
          <mxGeometry x="450" y="350" width="100" height="20" as="geometry" />
        </mxCell>
        <mxCell id="QXbhTZh7FSRHMu3yAL8Z-189" value="down 1" style="rounded=0;whiteSpace=wrap;html=1;" parent="1" vertex="1">
          <mxGeometry x="450" y="370" width="100" height="20" as="geometry" />
        </mxCell>
        <mxCell id="QXbhTZh7FSRHMu3yAL8Z-190" value="klasyfikacja (najlepszy wynik)" style="shape=flexArrow;endArrow=classic;html=1;rounded=0;exitX=0;exitY=0.5;exitDx=0;exitDy=0;" parent="1" source="QXbhTZh7FSRHMu3yAL8Z-182" edge="1">
          <mxGeometry y="20" width="50" height="50" relative="1" as="geometry">
            <mxPoint x="260" y="300" as="sourcePoint" />
            <mxPoint x="280" y="300" as="targetPoint" />
            <mxPoint as="offset" />
          </mxGeometry>
        </mxCell>
        <mxCell id="T2ntLD29cBeYtYu6RE_p-3" style="edgeStyle=orthogonalEdgeStyle;rounded=0;orthogonalLoop=1;jettySize=auto;html=1;exitX=0.5;exitY=1;exitDx=0;exitDy=0;entryX=0.5;entryY=0;entryDx=0;entryDy=0;shape=flexArrow;" parent="1" source="T2ntLD29cBeYtYu6RE_p-1" target="T2ntLD29cBeYtYu6RE_p-2" edge="1">
          <mxGeometry relative="1" as="geometry">
            <Array as="points">
              <mxPoint x="190" y="80" />
              <mxPoint x="50" y="80" />
            </Array>
          </mxGeometry>
        </mxCell>
        <mxCell id="T2ntLD29cBeYtYu6RE_p-1" value="Obliczenie rÃ³Å¼nic" style="rounded=0;whiteSpace=wrap;html=1;" parent="1" vertex="1">
          <mxGeometry x="150" y="20" width="80" height="60" as="geometry" />
        </mxCell>
        <mxCell id="T2ntLD29cBeYtYu6RE_p-4" style="edgeStyle=orthogonalEdgeStyle;rounded=0;orthogonalLoop=1;jettySize=auto;html=1;exitX=1;exitY=0.5;exitDx=0;exitDy=0;entryX=0;entryY=0.5;entryDx=0;entryDy=0;shape=flexArrow;" parent="1" source="T2ntLD29cBeYtYu6RE_p-2" target="QXbhTZh7FSRHMu3yAL8Z-158" edge="1">
          <mxGeometry relative="1" as="geometry">
            <Array as="points">
              <mxPoint x="90" y="190" />
            </Array>
          </mxGeometry>
        </mxCell>
        <mxCell id="T2ntLD29cBeYtYu6RE_p-2" value="8 najmniejszych rÃ³Å¼nic" style="rounded=0;whiteSpace=wrap;html=1;" parent="1" vertex="1">
          <mxGeometry x="10" y="150" width="80" height="60" as="geometry" />
        </mxCell>
        <mxCell id="T2ntLD29cBeYtYu6RE_p-5" value="" style="shape=flexArrow;endArrow=classic;html=1;rounded=0;entryX=1;entryY=0.5;entryDx=0;entryDy=0;" parent="1" target="T2ntLD29cBeYtYu6RE_p-1" edge="1">
          <mxGeometry width="50" height="50" relative="1" as="geometry">
            <mxPoint x="580" y="50" as="sourcePoint" />
            <mxPoint x="350" y="120" as="targetPoint" />
          </mxGeometry>
        </mxCell>
        <mxCell id="T2ntLD29cBeYtYu6RE_p-6" value="Profil dÅºwiÄku" style="edgeLabel;html=1;align=center;verticalAlign=middle;resizable=0;points=[];" parent="T2ntLD29cBeYtYu6RE_p-5" vertex="1" connectable="0">
          <mxGeometry x="-0.4117" relative="1" as="geometry">
            <mxPoint x="53" y="-20" as="offset" />
          </mxGeometry>
        </mxCell>
        <mxCell id="T2ntLD29cBeYtYu6RE_p-8" style="edgeStyle=orthogonalEdgeStyle;rounded=0;orthogonalLoop=1;jettySize=auto;html=1;exitX=1;exitY=0.5;exitDx=0;exitDy=0;exitPerimeter=0;entryX=0;entryY=0.25;entryDx=0;entryDy=0;shape=flexArrow;" parent="1" source="T2ntLD29cBeYtYu6RE_p-7" target="T2ntLD29cBeYtYu6RE_p-1" edge="1">
          <mxGeometry relative="1" as="geometry" />
        </mxCell>
        <mxCell id="T2ntLD29cBeYtYu6RE_p-7" value="Model" style="shape=cylinder3;whiteSpace=wrap;html=1;boundedLbl=1;backgroundOutline=1;size=15;" parent="1" vertex="1">
          <mxGeometry x="20" y="10" width="100" height="50" as="geometry" />
        </mxCell>
        <mxCell id="U09QIPUbNQMOL4Gzh403-3" style="edgeStyle=orthogonalEdgeStyle;rounded=0;orthogonalLoop=1;jettySize=auto;html=1;exitX=0;exitY=0.25;exitDx=0;exitDy=0;fillColor=#60a917;strokeColor=#2D7600;" edge="1" parent="1" source="U09QIPUbNQMOL4Gzh403-1">
          <mxGeometry relative="1" as="geometry">
            <mxPoint x="10" y="302.6" as="targetPoint" />
          </mxGeometry>
        </mxCell>
        <mxCell id="U09QIPUbNQMOL4Gzh403-4" value="&lt;font color=&quot;#003300&quot;&gt;&amp;gt;= 15&lt;br&gt;klasyfikacja (najlepszy wynik)&lt;/font&gt;" style="edgeLabel;html=1;align=center;verticalAlign=middle;resizable=0;points=[];" vertex="1" connectable="0" parent="U09QIPUbNQMOL4Gzh403-3">
          <mxGeometry x="-0.3927" y="-1" relative="1" as="geometry">
            <mxPoint x="-34" y="23" as="offset" />
          </mxGeometry>
        </mxCell>
        <mxCell id="U09QIPUbNQMOL4Gzh403-1" value="PrÃ³g minimalny" style="rounded=0;whiteSpace=wrap;html=1;" vertex="1" parent="1">
          <mxGeometry x="160" y="280" width="120" height="90" as="geometry" />
        </mxCell>
        <mxCell id="U09QIPUbNQMOL4Gzh403-2" value="&lt;font color=&quot;#660000&quot;&gt;&amp;nbsp;&amp;lt; 15&lt;br&gt;- brak wykrycia&lt;/font&gt;" style="endArrow=classic;html=1;rounded=0;exitX=-0.006;exitY=0.786;exitDx=0;exitDy=0;exitPerimeter=0;fillColor=#a20025;strokeColor=#6F0000;" edge="1" parent="1" source="U09QIPUbNQMOL4Gzh403-1">
          <mxGeometry x="-0.0619" y="21" width="50" height="50" relative="1" as="geometry">
            <mxPoint x="270" y="410" as="sourcePoint" />
            <mxPoint x="10" y="350" as="targetPoint" />
            <mxPoint as="offset" />
          </mxGeometry>
        </mxCell>
      </root>
    </mxGraphModel>
  </diagram>
</mxfile>
